<svg width="96" height="96" viewBox="0 0 96 96" xmlns="http://www.w3.org/2000/svg">
<path d="M48.375 63.0938C48.375 63.5062 48.6937 63.8438 49.0781 63.8438H66.4219C66.8063 63.8438 67.125 63.5062 67.125 63.0938V58.5938C67.125 58.1813 66.8063 57.8438 66.4219 57.8438H49.0781C48.6937 57.8438 48.375 58.1813 48.375 58.5938V63.0938ZM30.1031 63.6656L48.1031 48.5719C48.4594 48.2719 48.4594 47.7188 48.1031 47.4187L30.1031 32.3344C29.9945 32.242 29.8616 32.1827 29.7202 32.1636C29.5789 32.1444 29.435 32.1663 29.3057 32.2265C29.1764 32.2867 29.0671 32.3828 28.9907 32.5033C28.9144 32.6237 28.8742 32.7636 28.875 32.9062V38.7844C28.875 39.0094 28.9688 39.2156 29.1469 39.3562L39.4406 48L29.1469 56.6438C29.0631 56.7139 28.9954 56.8013 28.9485 56.9C28.9016 56.9987 28.8765 57.1064 28.875 57.2156V63.0938C28.875 63.7313 29.6156 64.0781 30.1031 63.6656ZM82.5 10.5H13.5C11.8406 10.5 10.5 11.8406 10.5 13.5V82.5C10.5 84.1594 11.8406 85.5 13.5 85.5H82.5C84.1594 85.5 85.5 84.1594 85.5 82.5V13.5C85.5 11.8406 84.1594 10.5 82.5 10.5ZM78.75 78.75H17.25V17.25H78.75V78.75Z"/>
</svg>
