<svg width="96" height="96" viewBox="0 0 96 96">
<path d="M33.956 70.908C20.8 62.184 14.224 40.364 16.416 33.82C18.168 28.58 25.916 30.18 29.572 31.636C29.572 16.364 36.148 12 53.692 12C71.224 12 80 16.36 80 38.18C80 55.636 75.616 67.272 73.424 70.908M33.956 70.908H73.424H33.956ZM33.956 70.908V84H73.424V70.908H33.956Z" stroke="#FBA500" stroke-width="5" stroke-linecap="round" stroke-linejoin="round"/>
<path d="M29.572 31.6399C29.572 46.9079 36.148 49.0919 40.532 49.0919M29.572 31.6399C31.032 33.0879 35.272 35.9999 40.532 35.9999H60.268L29.572 31.6399Z" stroke="#FBA500" stroke-width="5" stroke-linecap="round" stroke-linejoin="round"/>
</svg>
