<svg width="96" height="96" viewBox="0 0 96 96" xmlns="http://www.w3.org/2000/svg">
<path d="M50 8V21.008C50 21.8036 50.3161 22.5667 50.8787 23.1293C51.4413 23.6919 52.2043 24.008 53 24.008C53.7957 24.008 54.5587 23.6919 55.1213 23.1293C55.6839 22.5667 56 21.8036 56 21.008V8H60V25.004C60 25.7996 60.3161 26.5627 60.8787 27.1253C61.4413 27.6879 62.2043 28.004 63 28.004C63.7957 28.004 64.5587 27.6879 65.1213 27.1253C65.6839 26.5627 66 25.7996 66 25.004V8H73C73.7957 8 74.5587 8.31607 75.1213 8.87868C75.6839 9.44129 76 10.2044 76 11V44H20V11C20 10.2044 20.3161 9.44129 20.8787 8.87868C21.4413 8.31607 22.2044 8 23 8H50ZM20 50V57.008C20 59.3949 20.9482 61.6841 22.636 63.372C24.3239 65.0598 26.6131 66.008 29 66.008H40V80C40 82.1217 40.8429 84.1566 42.3431 85.6569C43.8434 87.1571 45.8783 88 48 88C50.1217 88 52.1566 87.1571 53.6569 85.6569C55.1571 84.1566 56 82.1217 56 80V66.008H67C68.1819 66.008 69.3522 65.7752 70.4442 65.3229C71.5361 64.8706 72.5282 64.2077 73.364 63.372C74.1997 62.5362 74.8626 61.5441 75.3149 60.4522C75.7672 59.3602 76 58.1899 76 57.008V50H20Z"/>
</svg>
