<svg width="96" height="96" viewBox="0 0 96 96">
<g clip-path="url(#clip0_1_111)">
<path d="M96 23.9999V18.2351C96.0006 17.7313 95.9019 17.2323 95.7094 16.7667C95.5168 16.3011 95.2344 15.8781 94.8781 15.5218C94.5219 15.1655 94.0988 14.8831 93.6332 14.6906C93.1676 14.498 92.6686 14.3993 92.1648 14.3999H3.8448C3.34053 14.3993 2.84106 14.498 2.37493 14.6904C1.9088 14.8828 1.48513 15.1651 1.12811 15.5212C0.771083 15.8774 0.487702 16.3003 0.294142 16.766C0.100581 17.2316 0.000632955 17.7308 3.00403e-06 18.2351V23.9999H9.6V33.5999H3.00403e-06V43.1999H9.6V52.7999H3.00403e-06V62.3999H9.6V71.9999H3.00403e-06V77.7551C-0.000628746 78.2602 0.0983888 78.7605 0.291384 79.2272C0.48438 79.694 0.767561 80.1181 1.12471 80.4752C1.48186 80.8324 1.90596 81.1155 2.37271 81.3085C2.83947 81.5015 3.33972 81.6005 3.8448 81.5999H92.1648C92.6691 81.5993 93.1683 81.4993 93.6339 81.3058C94.0996 81.1122 94.5226 80.8288 94.8787 80.4718C95.2348 80.1148 95.5171 79.6911 95.7095 79.225C95.9019 78.7589 96.0006 78.2594 96 77.7551V71.9999H86.4V62.3999H96V52.7999H86.4V43.1999H96V33.5999H86.4V23.9999H96ZM38.4 62.3999V33.5999L62.4 47.9999L38.4 62.3999Z"/>
</g>
<defs>
<clipPath id="clip0_1_111">
<rect width="96" height="96"/>
</clipPath>
</defs>
</svg>
