<svg width="96" height="96" viewBox="0 0 96 96" xmlns="http://www.w3.org/2000/svg">
<path d="M47.856 27.8799C47.856 27.8799 35.556 29.1039 29.116 23.7399C22.676 18.3719 24.144 8.11995 24.144 8.11995C24.144 8.11995 36.444 6.89595 42.888 12.2599C49.328 17.6279 47.856 27.8799 47.856 27.8799V27.8799Z" stroke="#FBA500" stroke-width="5" stroke-linecap="round" stroke-linejoin="round"/>
<path d="M48.144 27.8799C48.144 27.8799 60.444 29.1039 66.884 23.7399C73.324 18.3719 71.856 8.11995 71.856 8.11995C71.856 8.11995 59.556 6.89595 53.116 12.2599C46.676 17.6279 48.144 27.8799 48.144 27.8799V27.8799ZM16 44C16 42.9391 16.4214 41.9217 17.1716 41.1715C17.9217 40.4214 18.9391 40 20 40H76C77.0609 40 78.0783 40.4214 78.8284 41.1715C79.5786 41.9217 80 42.9391 80 44V52C80 53.0608 79.5786 54.0782 78.8284 54.8284C78.0783 55.5785 77.0609 56 76 56H20C18.9391 56 17.9217 55.5785 17.1716 54.8284C16.4214 54.0782 16 53.0608 16 52V44ZM20 56H76L68 87.9999H28L20 56Z" stroke="#FBA500" stroke-width="5" stroke-linecap="round" stroke-linejoin="round"/>
</svg>
