<svg width="131" height="114" viewBox="0 0 131 114" xmlns="http://www.w3.org/2000/svg">
    <path d="M52.56 41.624C55.2907 41.624 57.424 42.392 58.96 43.928C60.5813 45.464 61.392 47.5973 61.392 50.328C61.392 51.0107 61.3493 51.736 61.264 52.504C61.1787 53.1867 61.008 53.784 60.752 54.296C59.6427 54.1253 58.4053 53.9973 57.04 53.912C55.6747 53.7413 54.0533 53.656 52.176 53.656C48.336 53.656 44.496 53.9973 40.656 54.68C36.816 55.3627 33.1467 55.9173 29.648 56.344C25.808 65.3893 22.6507 73.88 20.176 81.816C17.7013 89.752 15.7813 97.6027 14.416 105.368C11.5147 104.685 8.95467 103.448 6.736 101.656C4.51733 99.864 2.42667 97.3467 0.464001 94.104C1.06133 92.7387 1.78667 91.1173 2.64 89.24C3.49333 87.2773 4.51733 84.8453 5.712 81.944C6.90667 78.9573 8.31467 75.3733 9.936 71.192C11.6427 66.9253 13.648 61.848 15.952 55.96C12.368 54.7653 10.0213 52.6747 8.912 49.688C9.33867 49.2613 10.5333 48.792 12.496 48.28C14.4587 47.6827 16.848 47.0427 19.664 46.36C20.944 43.032 22.0533 40.088 22.992 37.528C23.9307 34.8827 24.784 32.408 25.552 30.104C26.32 27.7147 27.0027 25.4107 27.6 23.192C28.2827 20.888 28.88 18.456 29.392 15.896H28.752C25.5093 15.896 22.864 15.128 20.816 13.592C18.8533 12.056 17.872 10.0507 17.872 7.576C17.872 6.89333 17.9573 6.08266 18.128 5.144C18.384 4.20533 18.6827 3.39466 19.024 2.712C20.6453 2.96799 22.224 3.13866 23.76 3.224C25.3813 3.30933 27.472 3.352 30.032 3.352C35.408 3.352 40.4427 3.224 45.136 2.96799C49.8293 2.62666 54.0533 2.28533 57.808 1.94399C61.648 1.60266 64.9333 1.304 67.664 1.048C70.3947 0.706662 72.4853 0.535995 73.936 0.535995C75.8987 0.535995 77.648 1.56 79.184 3.60799C80.72 5.65599 81.9147 8.55733 82.768 12.312C80.0373 12.056 77.8187 11.8853 76.112 11.8C74.4907 11.7147 73.04 11.672 71.76 11.672C67.408 11.672 63.3973 11.8853 59.728 12.312C56.144 12.6533 52.7307 13.08 49.488 13.592C48.976 14.36 48.3787 15.3413 47.696 16.536C47.0987 17.7307 46.288 19.4373 45.264 21.656C44.24 23.7893 42.9173 26.6053 41.296 30.104C39.76 33.6027 37.7973 38.04 35.408 43.416C38.736 42.904 41.8933 42.4773 44.88 42.136C47.952 41.7947 50.512 41.624 52.56 41.624ZM111.053 0.407997C114.296 0.407997 117.666 1.00533 121.165 2.2C124.664 3.39466 127.736 4.93066 130.381 6.808C129.528 11.16 128.717 15.0853 127.949 18.584C127.266 22.0827 126.626 25.2827 126.029 28.184C125.432 31 124.834 33.6027 124.237 35.992C123.725 38.296 123.213 40.472 122.701 42.52C120.653 50.2 118.52 57.1547 116.301 63.384C114.168 69.528 111.864 75.0747 109.389 80.024C107 84.9733 104.44 89.368 101.709 93.208C99.0637 97.048 96.205 100.419 93.133 103.32C90.1463 106.136 87.1597 108.44 84.173 110.232C81.1863 112.024 78.413 113.176 75.853 113.688C72.4397 113.688 69.2823 113.304 66.381 112.536C63.4797 111.768 60.9623 110.701 58.829 109.336C56.781 108.056 55.1597 106.477 53.965 104.6C52.8557 102.808 52.301 100.803 52.301 98.584C52.301 96.1947 52.8983 93.208 54.093 89.624C55.2877 85.9547 57.1223 81.6453 59.597 76.696C60.621 76.7813 61.8157 77.0373 63.181 77.464C64.5463 77.8907 65.9117 78.4027 67.277 79C68.6423 79.5973 69.8797 80.28 70.989 81.048C72.0983 81.7307 72.909 82.4133 73.421 83.096C70.6903 85.912 68.4717 89.0267 66.765 92.44C65.0583 95.768 64.205 98.6693 64.205 101.144C64.205 102.595 64.461 103.875 64.973 104.984C65.5703 106.179 66.5517 107.245 67.917 108.184C73.1223 106.221 78.1997 102.552 83.149 97.176C88.0983 91.8853 92.493 85.272 96.333 77.336C98.637 72.6427 100.728 67.2667 102.605 61.208C104.482 55.1493 106.061 49.0907 107.341 43.032C108.706 36.888 109.73 31.0427 110.413 25.496C111.181 19.864 111.565 15.128 111.565 11.288C111.565 10.6907 111.522 9.88 111.437 8.856C111.437 7.74666 111.394 6.63733 111.309 5.52799C111.309 4.33333 111.266 3.26666 111.181 2.328C111.096 1.38933 111.053 0.749331 111.053 0.407997Z" fill="white"/>
</svg>