<svg width="131" height="114" viewBox="0 0 131 114">
    <path d="M52.56 41.624C55.2907 41.624 57.424 42.392 58.96 43.928C60.5813 45.464 61.392 47.5973 61.392 50.328C61.392 51.0107 61.3493 51.736 61.264 52.504C61.1787 53.1867 61.008 53.784 60.752 54.296C59.6427 54.1253 58.4053 53.9973 57.04 53.912C55.6747 53.7413 54.0533 53.656 52.176 53.656C48.336 53.656 44.496 53.9973 40.656 54.68C36.816 55.3627 33.1467 55.9173 29.648 56.344C25.808 65.3893 22.6507 73.88 20.176 81.816C17.7013 89.752 15.7813 97.6027 14.416 105.368C11.5147 104.685 8.95467 103.448 6.736 101.656C4.51733 99.864 2.42667 97.3467 0.464001 94.104C1.06133 92.7387 1.78667 91.1173 2.64 89.24C3.49333 87.2773 4.51733 84.8453 5.712 81.944C6.90667 78.9573 8.31467 75.3733 9.936 71.192C11.6427 66.9253 13.648 61.848 15.952 55.96C12.368 54.7653 10.0213 52.6747 8.912 49.688C9.33867 49.2613 10.5333 48.792 12.496 48.28C14.4587 47.6827 16.848 47.0427 19.664 46.36C20.944 43.032 22.0533 40.088 22.992 37.528C23.9307 34.8827 24.784 32.408 25.552 30.104C26.32 27.7147 27.0027 25.4107 27.6 23.192C28.2827 20.888 28.88 18.456 29.392 15.896H28.752C25.5093 15.896 22.864 15.128 20.816 13.592C18.8533 12.056 17.872 10.0507 17.872 7.576C17.872 6.89333 17.9573 6.08266 18.128 5.144C18.384 4.20533 18.6827 3.39466 19.024 2.712C20.6453 2.96799 22.224 3.13866 23.76 3.224C25.3813 3.30933 27.472 3.352 30.032 3.352C35.408 3.352 40.4427 3.224 45.136 2.96799C49.8293 2.62666 54.0533 2.28533 57.808 1.94399C61.648 1.60266 64.9333 1.304 67.664 1.048C70.3947 0.706662 72.4853 0.535995 73.936 0.535995C75.8987 0.535995 77.648 1.56 79.184 3.60799C80.72 5.65599 81.9147 8.55733 82.768 12.312C80.0373 12.056 77.8187 11.8853 76.112 11.8C74.4907 11.7147 73.04 11.672 71.76 11.672C67.408 11.672 63.3973 11.8853 59.728 12.312C56.144 12.6533 52.7307 13.08 49.488 13.592C48.976 14.36 48.3787 15.3413 47.696 16.536C47.0987 17.7307 46.288 19.4373 45.264 21.656C44.24 23.7893 42.9173 26.6053 41.296 30.104C39.76 33.6027 37.7973 38.04 35.408 43.416C38.736 42.904 41.8933 42.4773 44.88 42.136C47.952 41.7947 50.512 41.624 52.56 41.624ZM111.053 0.407997C114.296 0.407997 117.666 1.00533 121.165 2.2C124.664 3.39466 127.736 4.93066 130.381 6.808C129.528 11.16 128.717 15.0853 127.949 18.584C127.266 22.0827 126.626 25.2827 126.029 28.184C125.432 31 124.834 33.6027 124.237 35.992C123.725 38.296 123.213 40.472 122.701 42.52C120.653 50.2 118.52 57.1547 116.301 63.384C114.168 69.528 111.864 75.0747 109.389 80.024C107 84.9733 104.44 89.368 101.709 93.208C99.0637 97.048 96.205 100.419 93.133 103.32C90.1463 106.136 87.1597 108.44 84.173 110.232C81.1863 112.024 78.413 113.176 75.853 113.688C72.4397 113.688 69.2823 113.304 66.381 112.536C63.4797 111.768 60.9623 110.701 58.829 109.336C56.781 108.056 55.1597 106.477 53.965 104.6C52.8557 102.808 52.301 100.803 52.301 98.584C52.301 96.1947 52.8983 93.208 54.093 89.624C55.2877 85.9547 57.1223 81.6453 59.597 76.696C60.621 76.7813 61.8157 77.0373 63.181 77.464C64.5463 77.8907 65.9117 78.4027 67.277 79C68.6423 79.5973 69.8797 80.28 70.989 81.048C72.0983 81.7307 72.909 82.4133 73.421 83.096C70.6903 85.912 68.4717 89.0267 66.765 92.44C65.0583 95.768 64.205 98.6693 64.205 101.144C64.205 102.595 64.461 103.875 64.973 104.984C65.5703 106.179 66.5517 107.245 67.917 108.184C73.1223 106.221 78.1997 102.552 83.149 97.176C88.0983 91.8853 92.493 85.272 96.333 77.336C98.637 72.6427 100.728 67.2667 102.605 61.208C104.482 55.1493 106.061 49.0907 107.341 43.032C108.706 36.888 109.73 31.0427 110.413 25.496C111.181 19.864 111.565 15.128 111.565 11.288C111.565 10.6907 111.522 9.88 111.437 8.856C111.437 7.74666 111.394 6.63733 111.309 5.52799C111.309 4.33333 111.266 3.26666 111.181 2.328C111.096 1.38933 111.053 0.749331 111.053 0.407997Z" fill="white"/>
    <path d="M58.96 43.928L56.8387 46.0493L56.8673 46.078L56.8968 46.1059L58.96 43.928ZM61.264 52.504L64.2408 52.8761L64.2434 52.8557L64.2456 52.8353L61.264 52.504ZM60.752 54.296L60.2958 57.2611L62.4573 57.5936L63.4353 55.6376L60.752 54.296ZM57.04 53.912L56.6679 56.8888L56.7601 56.9004L56.8529 56.9062L57.04 53.912ZM40.656 54.68L40.1309 51.7263L40.1309 51.7263L40.656 54.68ZM29.648 56.344L29.2848 53.3661L27.564 53.5759L26.8865 55.1717L29.648 56.344ZM20.176 81.816L23.04 82.7091L23.04 82.7091L20.176 81.816ZM14.416 105.368L13.7289 108.288L16.8207 109.016L17.3707 105.888L14.416 105.368ZM6.736 101.656L4.85099 103.99L4.85099 103.99L6.736 101.656ZM0.464001 94.104L-2.28447 92.9015L-2.90796 94.3267L-2.1025 95.6574L0.464001 94.104ZM2.64 89.24L5.3711 90.4814L5.38134 90.4589L5.39121 90.4362L2.64 89.24ZM5.712 81.944L8.48604 83.0862L8.4918 83.0722L8.49743 83.0582L5.712 81.944ZM9.936 71.192L7.15057 70.0778L7.14467 70.0926L7.13892 70.1074L9.936 71.192ZM15.952 55.96L18.7457 57.0532L19.8964 54.1125L16.9007 53.1139L15.952 55.96ZM8.912 49.688L6.79068 47.5667L5.42943 48.9279L6.09972 50.7326L8.912 49.688ZM12.496 48.28L13.2533 51.1829L13.3117 51.1676L13.3695 51.15L12.496 48.28ZM19.664 46.36L20.3708 49.2755L21.8994 48.905L22.464 47.4369L19.664 46.36ZM22.992 37.528L25.8086 38.5608L25.814 38.546L25.8193 38.5312L22.992 37.528ZM25.552 30.104L28.3981 31.0527L28.4032 31.0374L28.4081 31.022L25.552 30.104ZM27.6 23.192L24.7236 22.3397L24.7129 22.3758L24.7032 22.4121L27.6 23.192ZM29.392 15.896L32.3337 16.4843L33.0514 12.896H29.392V15.896ZM20.816 13.592L18.9671 15.9545L18.9913 15.9735L19.016 15.992L20.816 13.592ZM18.128 5.144L15.2337 4.35465L15.1996 4.47976L15.1764 4.60734L18.128 5.144ZM19.024 2.712L19.4919 -0.251292L17.3228 -0.593775L16.3407 1.37035L19.024 2.712ZM23.76 3.224L23.5936 6.21939L23.6023 6.21985L23.76 3.224ZM45.136 2.96799L45.2994 5.96354L45.3265 5.96206L45.3536 5.96009L45.136 2.96799ZM57.808 1.94399L57.5424 -1.04423L57.5364 -1.04369L57.808 1.94399ZM67.664 1.048L67.944 4.0349L67.9901 4.03058L68.0361 4.02483L67.664 1.048ZM82.768 12.312L82.488 15.2989L86.6112 15.6855L85.6934 11.6471L82.768 12.312ZM76.112 11.8L75.9543 14.7959L75.9622 14.7963L76.112 11.8ZM59.728 12.312L60.0124 15.2985L60.0435 15.2955L60.0745 15.2919L59.728 12.312ZM49.488 13.592L49.0201 10.6287L47.7213 10.8338L46.9919 11.9279L49.488 13.592ZM47.696 16.536L45.0913 15.0476L45.05 15.1199L45.0127 15.1944L47.696 16.536ZM45.264 21.656L47.9686 22.9542L47.9784 22.9338L47.9879 22.9132L45.264 21.656ZM41.296 30.104L38.5741 28.8426L38.5613 28.8702L38.5491 28.898L41.296 30.104ZM35.408 43.416L32.6666 42.1976L30.4361 47.2162L35.8642 46.3811L35.408 43.416ZM44.88 42.136L44.5487 39.1543L44.5394 39.1554L44.88 42.136ZM52.56 44.624C54.7107 44.624 56.0014 45.212 56.8387 46.0493L61.0813 41.8067C58.8467 39.572 55.8707 38.624 52.56 38.624V44.624ZM56.8968 46.1059C57.7908 46.9528 58.392 48.2243 58.392 50.328H64.392C64.392 46.9704 63.3719 43.9752 61.0232 41.7501L56.8968 46.1059ZM58.392 50.328C58.392 50.8867 58.357 51.5006 58.2824 52.1727L64.2456 52.8353C64.3416 51.9714 64.392 51.1347 64.392 50.328H58.392ZM58.2872 52.1319C58.2358 52.5432 58.1454 52.801 58.0687 52.9544L63.4353 55.6376C63.8706 54.767 64.1216 53.8301 64.2408 52.8761L58.2872 52.1319ZM61.2082 51.3309C59.9929 51.1439 58.6639 51.0076 57.2271 50.9178L56.8529 56.9062C58.1468 56.987 59.2924 57.1067 60.2958 57.2611L61.2082 51.3309ZM57.4121 50.9352C55.8881 50.7447 54.1363 50.656 52.176 50.656V56.656C53.9704 56.656 55.4612 56.738 56.6679 56.8888L57.4121 50.9352ZM52.176 50.656C48.1572 50.656 44.1415 51.0133 40.1309 51.7263L41.1811 57.6337C44.8505 56.9813 48.5148 56.656 52.176 56.656V50.656ZM40.1309 51.7263C36.3391 52.4004 32.724 52.9467 29.2848 53.3661L30.0112 59.3219C33.5694 58.888 37.2929 58.3249 41.1811 57.6337L40.1309 51.7263ZM26.8865 55.1717C23.0145 64.2924 19.8209 72.877 17.312 80.9229L23.04 82.7091C25.4804 74.883 28.6015 66.4862 32.4095 57.5163L26.8865 55.1717ZM17.312 80.9229C14.8012 88.9748 12.85 96.9502 11.4613 104.848L17.3707 105.888C18.7126 98.2551 20.6015 90.5292 23.04 82.7091L17.312 80.9229ZM15.1031 102.448C12.6197 101.863 10.4736 100.818 8.62101 99.3222L4.85099 103.99C7.43576 106.078 10.4096 107.507 13.7289 108.288L15.1031 102.448ZM8.62101 99.3222C6.74575 97.8075 4.86873 95.5877 3.0305 92.5506L-2.1025 95.6574C-0.0153928 99.1057 2.28892 101.92 4.85099 103.99L8.62101 99.3222ZM3.21247 95.3065C3.80242 93.958 4.5216 92.3503 5.3711 90.4814L-0.0910979 87.9986C-0.948268 89.8844 -1.67975 91.5193 -2.28447 92.9015L3.21247 95.3065ZM5.39121 90.4362C6.25499 88.4495 7.28701 85.9982 8.48604 83.0862L2.93797 80.8017C1.74766 83.6925 0.731676 86.1052 -0.111209 88.0438L5.39121 90.4362ZM8.49743 83.0582C9.69722 80.0587 11.1093 76.4643 12.7331 72.2766L7.13892 70.1074C5.52005 74.2824 4.11611 77.856 2.92657 80.8298L8.49743 83.0582ZM12.7214 72.3062C14.4317 68.0305 16.4399 62.9458 18.7457 57.0532L13.1583 54.8668C10.8561 60.7502 8.85363 65.8202 7.15057 70.0778L12.7214 72.3062ZM16.9007 53.1139C14.0002 52.1471 12.4571 50.6165 11.7243 48.6434L6.09972 50.7326C7.58555 54.7329 10.7358 57.3835 15.0033 58.806L16.9007 53.1139ZM11.0333 51.8093C10.8652 51.9775 10.7539 52.0261 10.8271 51.9857C10.8814 51.9557 11.0052 51.8946 11.225 51.8083C11.667 51.6346 12.3294 51.4239 13.2533 51.1829L11.7387 45.3771C10.6999 45.6481 9.78371 45.9281 9.03104 46.2237C8.38602 46.4771 7.47324 46.8841 6.79068 47.5667L11.0333 51.8093ZM13.3695 51.15C15.2598 50.5747 17.59 49.9497 20.3708 49.2755L18.9572 43.4444C16.106 44.1356 13.6575 44.7906 11.6225 45.41L13.3695 51.15ZM22.464 47.4369C23.7481 44.0984 24.8632 41.1392 25.8086 38.5608L20.1754 36.4952C19.2435 39.0368 18.1399 41.9656 16.864 45.2831L22.464 47.4369ZM25.8193 38.5312C26.7634 35.8705 27.6231 33.3775 28.3981 31.0527L22.706 29.1553C21.9449 31.4385 21.0979 33.8948 20.1647 36.5248L25.8193 38.5312ZM28.4081 31.022C29.1895 28.5911 29.886 26.2409 30.4968 23.9719L24.7032 22.4121C24.1194 24.5804 23.4506 26.8382 22.6959 29.186L28.4081 31.022ZM30.4764 24.0443C31.1869 21.6463 31.8055 19.1257 32.3337 16.4843L26.4503 15.3076C25.9545 17.7863 25.3784 20.1297 24.7236 22.3397L30.4764 24.0443ZM29.392 12.896H28.752V18.896H29.392V12.896ZM28.752 12.896C25.9835 12.896 24.0203 12.2452 22.616 11.192L19.016 15.992C21.7077 18.0108 25.0352 18.896 28.752 18.896V12.896ZM22.6649 11.2295C21.4228 10.2573 20.872 9.12039 20.872 7.576H14.872C14.872 10.9809 16.2839 13.8546 18.9671 15.9545L22.6649 11.2295ZM20.872 7.576C20.872 7.12837 20.9295 6.50622 21.0796 5.68066L15.1764 4.60734C14.9852 5.65911 14.872 6.65829 14.872 7.576H20.872ZM21.0223 5.93334C21.2397 5.13609 21.4745 4.51921 21.7073 4.05365L16.3407 1.37035C15.8908 2.27012 15.5283 3.27456 15.2337 4.35465L21.0223 5.93334ZM18.5561 5.67529C20.2707 5.94601 21.9502 6.12807 23.5936 6.21938L23.9264 0.228618C22.4978 0.149249 21.0199 -0.0100252 19.4919 -0.251292L18.5561 5.67529ZM23.6023 6.21985C25.2971 6.30905 27.4456 6.352 30.032 6.352V0.351997C27.4984 0.351997 25.4656 0.309615 23.9177 0.228145L23.6023 6.21985ZM30.032 6.352C35.4549 6.352 40.5446 6.2229 45.2994 5.96354L44.9726 -0.0275524C40.3407 0.225096 35.3611 0.351997 30.032 0.351997V6.352ZM45.3536 5.96009C50.0608 5.61775 54.3032 5.27498 58.0796 4.93167L57.5364 -1.04369C53.8035 -0.704329 49.5979 -0.364432 44.9184 -0.0241027L45.3536 5.96009ZM58.0736 4.93221C61.9167 4.59061 65.2071 4.29149 67.944 4.0349L67.384 -1.93891C64.6596 -1.68349 61.3793 -1.38528 57.5424 -1.04423L58.0736 4.93221ZM68.0361 4.02483C70.7318 3.68786 72.675 3.536 73.936 3.536V-2.464C72.2957 -2.464 70.0575 -2.27454 67.2919 -1.92884L68.0361 4.02483ZM73.936 3.536C74.6792 3.536 75.6261 3.86411 76.784 5.408L81.584 1.80799C79.6699 -0.744122 77.1182 -2.464 73.936 -2.464V3.536ZM76.784 5.408C77.9724 6.99258 79.0399 9.44511 79.8426 12.9769L85.6934 11.6471C84.7894 7.66954 83.4676 4.3194 81.584 1.80799L76.784 5.408ZM83.048 9.32509C80.2965 9.06714 78.0298 8.89214 76.2618 8.80374L75.9622 14.7963C77.6075 14.8785 79.7782 15.0449 82.488 15.2989L83.048 9.32509ZM76.2697 8.80414C74.609 8.71674 73.1043 8.672 71.76 8.672V14.672C72.9757 14.672 74.3723 14.7126 75.9543 14.7958L76.2697 8.80414ZM71.76 8.672C67.312 8.672 63.1839 8.88993 59.3815 9.33207L60.0745 15.2919C63.6107 14.8807 67.504 14.672 71.76 14.672V8.672ZM59.4436 9.32551C55.804 9.67214 52.3292 10.1062 49.0201 10.6287L49.9559 16.5553C53.1322 16.0538 56.484 15.6345 60.0124 15.2985L59.4436 9.32551ZM46.9919 11.9279C46.4281 12.7736 45.7933 13.819 45.0913 15.0476L50.3007 18.0244C50.964 16.8636 51.5239 15.9464 51.9842 15.2561L46.9919 11.9279ZM45.0127 15.1944C44.3944 16.4309 43.5684 18.1709 42.5401 20.3988L47.9879 22.9132C49.0076 20.7038 49.8029 19.0304 50.3793 17.8776L45.0127 15.1944ZM42.5594 20.3578C41.5271 22.5085 40.1981 25.3382 38.5741 28.8426L44.0179 31.3654C45.6366 27.8724 46.9529 25.0701 47.9686 22.9542L42.5594 20.3578ZM38.5491 28.898C37.0156 32.391 35.0549 36.8238 32.6666 42.1976L38.1494 44.6344C40.5397 39.2562 42.5044 34.8144 44.0429 31.31L38.5491 28.898ZM35.8642 46.3811C39.1582 45.8743 42.2768 45.453 45.2206 45.1166L44.5394 39.1554C41.5098 39.5016 38.3138 39.9337 34.9518 40.4509L35.8642 46.3811ZM45.2113 45.1176C48.2226 44.7831 50.6631 44.624 52.56 44.624V38.624C50.3609 38.624 47.6814 38.8063 44.5487 39.1543L45.2113 45.1176ZM111.053 0.407997V-2.592H108.053V0.407997H111.053ZM130.381 6.808L133.325 7.38524L133.698 5.48322L132.117 4.36148L130.381 6.808ZM127.949 18.584L125.019 17.9408L125.011 17.975L125.005 18.0095L127.949 18.584ZM126.029 28.184L128.964 28.8065L128.966 28.7977L128.967 28.789L126.029 28.184ZM124.237 35.992L121.327 35.2644L121.317 35.3027L121.308 35.3412L124.237 35.992ZM122.701 42.52L125.6 43.293L125.606 43.2703L125.611 43.2476L122.701 42.52ZM116.301 63.384L113.475 62.3774L113.471 62.3887L113.467 62.4L116.301 63.384ZM109.389 80.024L106.706 78.6824L106.696 78.701L106.687 78.7198L109.389 80.024ZM101.709 93.208L99.2641 91.4694L99.2512 91.4877L99.2385 91.5061L101.709 93.208ZM93.133 103.32L95.191 105.503L95.1929 105.501L93.133 103.32ZM84.173 110.232L82.6295 107.66L82.6295 107.66L84.173 110.232ZM75.853 113.688V116.688H76.1501L76.4414 116.63L75.853 113.688ZM66.381 112.536L65.6133 115.436L65.6133 115.436L66.381 112.536ZM58.829 109.336L60.4462 106.809L60.4326 106.801L60.419 106.792L58.829 109.336ZM53.965 104.6L51.4142 106.179L51.424 106.195L51.434 106.211L53.965 104.6ZM54.093 89.624L56.9391 90.5727L56.9424 90.5627L56.9456 90.5528L54.093 89.624ZM59.597 76.696L59.8461 73.7064L57.8221 73.5377L56.9137 75.3544L59.597 76.696ZM63.181 77.464L64.0758 74.6006L64.0758 74.6006L63.181 77.464ZM67.277 79L66.0745 81.7485L66.0745 81.7485L67.277 79ZM70.989 81.048L69.2814 83.5146L69.3478 83.5606L69.4167 83.603L70.989 81.048ZM73.421 83.096L75.5747 85.1844L77.358 83.3454L75.821 81.296L73.421 83.096ZM66.765 92.44L69.4345 93.8089L69.4414 93.7953L69.4483 93.7816L66.765 92.44ZM64.973 104.984L62.2491 106.241L62.2688 106.284L62.2897 106.326L64.973 104.984ZM67.917 108.184L66.2174 110.656L67.5089 111.544L68.9754 110.991L67.917 108.184ZM83.149 97.176L80.9582 95.1265L80.95 95.1353L80.9419 95.1441L83.149 97.176ZM96.333 77.336L93.64 76.014L93.6362 76.0216L93.6325 76.0293L96.333 77.336ZM102.605 61.208L105.471 62.0959L105.471 62.0959L102.605 61.208ZM107.341 43.032L104.412 42.3812L104.409 42.3965L104.406 42.4119L107.341 43.032ZM110.413 25.496L107.441 25.0907L107.438 25.1101L107.435 25.1295L110.413 25.496ZM111.437 8.856H108.437V8.98078L108.447 9.10513L111.437 8.856ZM111.309 5.52799H108.309V5.64321L108.318 5.75809L111.309 5.52799ZM111.181 2.328L114.169 2.05639L114.169 2.05638L111.181 2.328ZM111.053 3.408C113.923 3.408 116.966 3.93624 120.196 5.03905L122.134 -0.639053C118.367 -1.92558 114.668 -2.592 111.053 -2.592V3.408ZM120.196 5.03905C123.458 6.15322 126.265 7.56567 128.645 9.25452L132.117 4.36148C129.206 2.29566 125.869 0.63611 122.134 -0.639053L120.196 5.03905ZM127.437 6.23076C126.587 10.5657 125.781 14.4685 125.019 17.9408L130.879 19.2272C131.653 15.7022 132.468 11.7543 133.325 7.38524L127.437 6.23076ZM125.005 18.0095C124.323 21.4999 123.686 24.6896 123.091 27.579L128.967 28.789C129.567 25.8757 130.209 22.6654 130.893 19.1585L125.005 18.0095ZM123.094 27.5615C122.503 30.348 121.914 32.9152 121.327 35.2644L127.147 36.7196C127.755 34.2902 128.36 31.652 128.964 28.8065L123.094 27.5615ZM121.308 35.3412C120.801 37.6225 120.296 39.7727 119.791 41.7924L125.611 43.2476C126.131 41.1713 126.649 38.9695 127.166 36.6428L121.308 35.3412ZM119.802 41.747C117.771 49.3633 115.661 56.2384 113.475 62.3774L119.127 64.3906C121.378 58.0709 123.535 51.0367 125.6 43.293L119.802 41.747ZM113.467 62.4C111.369 68.4422 109.113 73.8668 106.706 78.6824L112.072 81.3656C114.614 76.2825 116.966 70.6138 119.135 64.368L113.467 62.4ZM106.687 78.7198C104.36 83.5417 101.883 87.7871 99.2641 91.4694L104.154 94.9466C106.997 90.9489 109.64 86.405 112.091 81.3282L106.687 78.7198ZM99.2385 91.5061C96.7006 95.19 93.9769 98.3965 91.0731 101.139L95.1929 105.501C98.4331 102.441 101.427 98.906 104.18 94.9099L99.2385 91.5061ZM91.075 101.137C88.2183 103.831 85.4018 105.996 82.6295 107.66L85.7165 112.804C88.9175 110.884 92.0744 108.441 95.191 105.503L91.075 101.137ZM82.6295 107.66C79.8452 109.33 77.3958 110.32 75.2647 110.746L76.4414 116.63C79.4302 116.032 82.5274 114.718 85.7165 112.804L82.6295 107.66ZM75.853 110.688C72.664 110.688 69.768 110.329 67.1487 109.636L65.6133 115.436C68.7967 116.279 72.2153 116.688 75.853 116.688V110.688ZM67.1487 109.636C64.4941 108.933 62.2741 107.979 60.4462 106.809L57.2118 111.863C59.6505 113.424 62.4652 114.603 65.6133 115.436L67.1487 109.636ZM60.419 106.792C58.7174 105.729 57.4305 104.458 56.496 102.989L51.434 106.211C52.8888 108.497 54.8446 110.383 57.239 111.88L60.419 106.792ZM56.5158 103.021C55.7159 101.729 55.301 100.276 55.301 98.584H49.301C49.301 101.33 49.9954 103.887 51.4142 106.179L56.5158 103.021ZM55.301 98.584C55.301 96.6484 55.7943 94.0069 56.9391 90.5727L51.247 88.6753C50.0024 92.4091 49.301 95.7409 49.301 98.584H55.301ZM56.9456 90.5528C58.0791 87.0713 59.8463 82.9057 62.2803 78.0376L56.9137 75.3544C54.3984 80.385 52.4962 84.8381 51.2404 88.6952L56.9456 90.5528ZM59.3479 79.6856C60.0861 79.7472 61.0557 79.9429 62.2862 80.3274L64.0758 74.6006C62.5757 74.1318 61.1559 73.8155 59.8461 73.7064L59.3479 79.6856ZM62.2862 80.3274C63.5427 80.7201 64.8054 81.1932 66.0745 81.7485L68.4795 76.2515C67.0179 75.6121 65.55 75.0612 64.0758 74.6006L62.2862 80.3274ZM66.0745 81.7485C67.281 82.2763 68.3465 82.8673 69.2814 83.5146L72.6966 78.5814C71.4129 77.6927 70.0037 76.9184 68.4795 76.2515L66.0745 81.7485ZM69.4167 83.603C70.3567 84.1814 70.8217 84.6302 71.021 84.896L75.821 81.296C74.9963 80.1965 73.84 79.2799 72.5613 78.493L69.4167 83.603ZM71.2673 81.0076C68.329 84.0377 65.9295 87.4028 64.0817 91.0984L69.4483 93.7816C71.0139 90.6505 73.0517 87.7863 75.5747 85.1844L71.2673 81.0076ZM64.0955 91.071C62.2732 94.6246 61.205 98.0117 61.205 101.144H67.205C67.205 99.3269 67.8434 96.9114 69.4345 93.8089L64.0955 91.071ZM61.205 101.144C61.205 102.948 61.5243 104.671 62.2491 106.241L67.6969 103.727C67.3977 103.079 67.205 102.241 67.205 101.144H61.205ZM62.2897 106.326C63.1624 108.071 64.5331 109.498 66.2174 110.656L69.6166 105.712C68.5702 104.993 67.9782 104.286 67.6563 103.642L62.2897 106.326ZM68.9754 110.991C74.7342 108.82 80.1852 104.825 85.3561 99.2079L80.9419 95.1441C76.2141 100.279 71.5105 103.623 66.8586 105.377L68.9754 110.991ZM85.3398 99.2255C90.5345 93.6725 95.0894 86.7938 99.0335 78.6427L93.6325 76.0293C89.8966 83.7502 85.6622 90.0981 80.9582 95.1265L85.3398 99.2255ZM99.026 78.658C101.411 73.7989 103.556 68.2733 105.471 62.0959L99.7394 60.3201C97.8989 66.26 95.8626 71.4864 93.64 76.014L99.026 78.658ZM105.471 62.0959C107.375 55.9512 108.977 49.8032 110.276 43.6521L104.406 42.4119C103.145 48.3781 101.59 54.3474 99.7394 60.3201L105.471 62.0959ZM110.27 43.6828C111.653 37.4564 112.695 31.5157 113.391 25.8625L107.435 25.1295C106.766 30.5697 105.759 36.3196 104.412 42.3812L110.27 43.6828ZM113.385 25.9013C114.164 20.1922 114.565 15.3112 114.565 11.288H108.565C108.565 14.9448 108.198 19.5357 107.441 25.0907L113.385 25.9013ZM114.565 11.288C114.565 10.5693 114.515 9.66398 114.427 8.60686L108.447 9.10513C108.53 10.096 108.565 10.8121 108.565 11.288H114.565ZM114.437 8.856C114.437 7.66965 114.391 6.48356 114.3 5.2979L108.318 5.75809C108.397 6.79109 108.437 7.82367 108.437 8.856H114.437ZM114.309 5.52799C114.309 4.26534 114.264 3.10544 114.169 2.05639L108.193 2.5996C108.269 3.42788 108.309 4.40131 108.309 5.52799H114.309ZM114.169 2.05638C114.082 1.10351 114.053 0.593526 114.053 0.407997H108.053C108.053 0.905136 108.109 1.67515 108.193 2.59961L114.169 2.05638Z" fill="black"/>
</svg>