<svg width="16" height="16" viewBox="0 0 16 16">
<path d="M13.482 0C14.4195 0 15.1745 0.758 15.219 1.651V16L13.435 14.4845L12.456 13.594L11.3855 12.6615L11.831 14.1305H2.47399C1.53899 14.1305 0.781494 13.422 0.781494 12.4795V1.654C0.781494 0.761 1.53949 0.003 2.47699 0.003H13.477L13.482 0ZM9.40349 3.789H9.38249L9.24699 3.922C10.63 4.323 11.299 4.948 11.299 4.948C10.4085 4.5025 9.60349 4.2785 8.80149 4.1875C8.22349 4.099 7.64249 4.146 7.15299 4.1875H7.01749C6.70499 4.1875 6.03849 4.323 5.14499 4.6795C4.83499 4.815 4.65549 4.9035 4.65549 4.9035C4.65549 4.9035 5.32199 4.234 6.79599 3.8775L6.70499 3.789C6.70499 3.789 5.59049 3.7445 4.38749 4.6355C4.38749 4.6355 3.18449 6.732 3.18449 9.315C3.18449 9.315 3.85099 10.474 5.67949 10.518C5.67949 10.518 5.94749 10.164 6.21599 9.8515C5.18999 9.539 4.78899 8.914 4.78899 8.914C4.78899 8.914 4.87999 8.9585 5.01299 9.047H5.05199C5.07299 9.047 5.08349 9.0575 5.09349 9.068V9.073C5.10399 9.0835 5.11449 9.091 5.13249 9.091C5.35399 9.182 5.57249 9.2705 5.75249 9.359C6.06499 9.492 6.46349 9.627 6.95299 9.716C7.57299 9.807 8.28349 9.849 9.09349 9.716C9.49199 9.625 9.89299 9.539 10.294 9.359C10.552 9.226 10.872 9.0935 11.2235 8.867C11.2235 8.867 10.825 9.492 9.75449 9.8045C9.97349 10.1145 10.283 10.471 10.283 10.471C12.1135 10.4295 12.8245 9.2705 12.8635 9.32C12.8635 6.7395 11.6525 4.6405 11.6525 4.6405C10.564 3.8305 9.54299 3.7995 9.36349 3.7995L9.39999 3.7865L9.40349 3.789ZM9.51549 6.732C9.98449 6.732 10.362 7.1305 10.362 7.62C10.362 8.115 9.98199 8.513 9.51549 8.513C9.04649 8.513 8.66899 8.1145 8.66899 7.625C8.66899 7.13 9.04899 6.732 9.51549 6.732ZM6.48699 6.732C6.95299 6.732 7.33099 7.1305 7.33099 7.62C7.33099 8.115 6.95099 8.513 6.48449 8.513C6.01549 8.513 5.63549 8.1145 5.63549 7.625C5.63549 7.13 6.01549 6.732 6.48449 6.732H6.48699Z"/>
</svg>
