<svg width="16" height="16" viewBox="0 0 16 16">
<path fill-rule="evenodd" clip-rule="evenodd" d="M4.97667 0.710664C5.75867 0.674664 6.008 0.666664 8 0.666664C9.992 0.666664 10.2413 0.675331 11.0227 0.710664C11.804 0.745997 12.3373 0.870664 12.804 1.05133C13.2927 1.236 13.736 1.52466 14.1027 1.898C14.476 2.264 14.764 2.70666 14.948 3.196C15.1293 3.66266 15.2533 4.196 15.2893 4.976C15.3253 5.75933 15.3333 6.00866 15.3333 8C15.3333 9.992 15.3247 10.2413 15.2893 11.0233C15.254 11.8033 15.1293 12.3367 14.948 12.8033C14.764 13.2927 14.4755 13.7361 14.1027 14.1027C13.736 14.476 13.2927 14.764 12.804 14.948C12.3373 15.1293 11.804 15.2533 11.024 15.2893C10.2413 15.3253 9.992 15.3333 8 15.3333C6.008 15.3333 5.75867 15.3247 4.97667 15.2893C4.19667 15.254 3.66333 15.1293 3.19667 14.948C2.70728 14.764 2.26388 14.4755 1.89733 14.1027C1.52425 13.7364 1.23554 13.2933 1.05133 12.804C0.870668 12.3373 0.746668 11.804 0.710668 11.024C0.674668 10.2407 0.666668 9.99133 0.666668 8C0.666668 6.008 0.675335 5.75866 0.710668 4.97733C0.746001 4.196 0.870668 3.66266 1.05133 3.196C1.23582 2.70672 1.52475 2.26354 1.898 1.89733C2.26403 1.52433 2.70698 1.23563 3.196 1.05133C3.66267 0.870664 4.196 0.746664 4.976 0.710664H4.97667ZM10.9633 2.03066C10.19 1.99533 9.958 1.988 8 1.988C6.042 1.988 5.81 1.99533 5.03667 2.03066C4.32133 2.06333 3.93333 2.18266 3.67467 2.28333C3.33267 2.41666 3.088 2.57466 2.83133 2.83133C2.58803 3.06803 2.40079 3.35619 2.28333 3.67466C2.18267 3.93333 2.06333 4.32133 2.03067 5.03666C1.99533 5.81 1.988 6.042 1.988 8C1.988 9.958 1.99533 10.19 2.03067 10.9633C2.06333 11.6787 2.18267 12.0667 2.28333 12.3253C2.40067 12.6433 2.588 12.932 2.83133 13.1687C3.068 13.412 3.35667 13.5993 3.67467 13.7167C3.93333 13.8173 4.32133 13.9367 5.03667 13.9693C5.81 14.0047 6.04133 14.012 8 14.012C9.95867 14.012 10.19 14.0047 10.9633 13.9693C11.6787 13.9367 12.0667 13.8173 12.3253 13.7167C12.6673 13.5833 12.912 13.4253 13.1687 13.1687C13.412 12.932 13.5993 12.6433 13.7167 12.3253C13.8173 12.0667 13.9367 11.6787 13.9693 10.9633C14.0047 10.19 14.012 9.958 14.012 8C14.012 6.042 14.0047 5.81 13.9693 5.03666C13.9367 4.32133 13.8173 3.93333 13.7167 3.67466C13.5833 3.33266 13.4253 3.088 13.1687 2.83133C12.932 2.58804 12.6438 2.4008 12.3253 2.28333C12.0667 2.18266 11.6787 2.06333 10.9633 2.03066ZM7.06333 10.2607C7.58644 10.4784 8.16892 10.5078 8.71129 10.3438C9.25365 10.1798 9.72226 9.83261 10.0371 9.36149C10.3519 8.89038 10.4934 8.32458 10.4374 7.76073C10.3814 7.19689 10.1313 6.66998 9.73 6.27C9.47416 6.01431 9.16481 5.81854 8.82422 5.69676C8.48364 5.57499 8.12029 5.53024 7.76033 5.56574C7.40038 5.60124 7.05277 5.71611 6.74254 5.90208C6.4323 6.08805 6.16716 6.34049 5.9662 6.64123C5.76524 6.94197 5.63346 7.28352 5.58034 7.6413C5.52723 7.99909 5.5541 8.36419 5.65903 8.71034C5.76395 9.05649 5.94432 9.37507 6.18715 9.64314C6.42997 9.91122 6.72922 10.1221 7.06333 10.2607ZM5.33467 5.33466C5.68468 4.98465 6.10021 4.707 6.55753 4.51757C7.01485 4.32814 7.505 4.23065 8 4.23065C8.495 4.23065 8.98515 4.32814 9.44247 4.51757C9.89979 4.707 10.3153 4.98465 10.6653 5.33466C11.0154 5.68468 11.293 6.10021 11.4824 6.55753C11.6719 7.01485 11.7694 7.505 11.7694 8C11.7694 8.495 11.6719 8.98515 11.4824 9.44246C11.293 9.89978 11.0154 10.3153 10.6653 10.6653C9.95844 11.3722 8.99969 11.7693 8 11.7693C7.00031 11.7693 6.04156 11.3722 5.33467 10.6653C4.62778 9.95844 4.23065 8.99969 4.23065 8C4.23065 7.0003 4.62778 6.04155 5.33467 5.33466ZM12.6053 4.792C12.6921 4.71018 12.7615 4.61178 12.8095 4.50265C12.8576 4.39351 12.8832 4.27584 12.8849 4.15662C12.8867 4.03739 12.8645 3.91903 12.8197 3.80854C12.7748 3.69805 12.7083 3.59767 12.624 3.51336C12.5397 3.42904 12.4393 3.3625 12.3288 3.31768C12.2183 3.27285 12.0999 3.25065 11.9807 3.25239C11.8615 3.25412 11.7438 3.27977 11.6347 3.32779C11.5255 3.37582 11.4272 3.44526 11.3453 3.532C11.1862 3.70068 11.0991 3.92474 11.1025 4.15662C11.1058 4.38849 11.1995 4.60992 11.3634 4.77389C11.5274 4.93787 11.7488 5.03148 11.9807 5.03486C12.2126 5.03824 12.4366 4.95112 12.6053 4.792Z"/>
</svg>
