<svg width="16" height="16" viewBox="0 0 16 16" xmlns="http://www.w3.org/2000/svg">
<path fill-rule="evenodd" clip-rule="evenodd" d="M0.666664 1.892C0.666664 1.56702 0.795762 1.25535 1.02556 1.02556C1.25535 0.795763 1.56702 0.666666 1.892 0.666666H14.1067C14.2677 0.666403 14.4272 0.697908 14.5761 0.759377C14.725 0.820846 14.8602 0.911072 14.9742 1.02489C15.0881 1.13871 15.1785 1.27388 15.2401 1.42267C15.3017 1.57146 15.3334 1.73095 15.3333 1.892V14.1067C15.3335 14.2677 15.3019 14.4273 15.2404 14.5761C15.1788 14.725 15.0885 14.8603 14.9747 14.9742C14.8608 15.0881 14.7256 15.1785 14.5768 15.2401C14.4279 15.3017 14.2684 15.3334 14.1073 15.3333H1.892C1.73103 15.3333 1.57164 15.3016 1.42293 15.24C1.27422 15.1784 1.13911 15.0881 1.02532 14.9742C0.911529 14.8604 0.821285 14.7252 0.759746 14.5765C0.698206 14.4277 0.666577 14.2683 0.666664 14.1073V1.892ZM6.472 6.25867H8.458V7.256C8.74467 6.68267 9.478 6.16667 10.58 6.16667C12.6927 6.16667 13.1933 7.30867 13.1933 9.404V13.2853H11.0553V9.88133C11.0553 8.688 10.7687 8.01467 10.0407 8.01467C9.03067 8.01467 8.61067 8.74067 8.61067 9.88133V13.2853H6.472V6.25867ZM2.80533 13.194H4.944V6.16667H2.80533V13.1933V13.194ZM5.25 3.87467C5.25403 4.05778 5.22145 4.23986 5.15416 4.41021C5.08687 4.58056 4.98623 4.73576 4.85815 4.86669C4.73007 4.99762 4.57713 5.10165 4.4083 5.17267C4.23947 5.24369 4.05816 5.28028 3.875 5.28028C3.69184 5.28028 3.51052 5.24369 3.34169 5.17267C3.17287 5.10165 3.01992 4.99762 2.89184 4.86669C2.76376 4.73576 2.66313 4.58056 2.59584 4.41021C2.52855 4.23986 2.49597 4.05778 2.5 3.87467C2.50791 3.51524 2.65625 3.17319 2.91325 2.92179C3.17026 2.67039 3.51548 2.52961 3.875 2.52961C4.23452 2.52961 4.57974 2.67039 4.83674 2.92179C5.09374 3.17319 5.24208 3.51524 5.25 3.87467Z"/>
</svg>
